<svg xmlns="http://www.w3.org/2000/svg" viewBox="0 0 128 128" width="128" height="128">
  <!-- Background circle -->
  <circle cx="64" cy="64" r="60" fill="#667eea" stroke="#5a67d8" stroke-width="2"/>
  
  <!-- Clipboard base -->
  <rect x="32" y="28" width="44" height="58" rx="4" fill="#ffffff" stroke="#e2e8f0" stroke-width="1.5"/>
  
  <!-- Clipboard clip -->
  <rect x="48" y="22" width="12" height="8" rx="2" fill="#a0aec0"/>
  <rect x="50" y="24" width="8" height="4" rx="1" fill="#ffffff"/>
  
  <!-- Text lines representing definitions -->
  <rect x="38" y="38" width="20" height="2" rx="1" fill="#4299e1"/>
  <rect x="38" y="44" width="26" height="2" rx="1" fill="#63b3ed"/>
  <rect x="38" y="50" width="18" height="2" rx="1" fill="#90cdf4"/>
  
  <!-- Book/dictionary icon overlay -->
  <g transform="translate(54, 44)">
    <!-- Book pages -->
    <rect x="0" y="0" width="20" height="26" rx="2" fill="#ffd700" opacity="0.9"/>
    <rect x="2" y="2" width="16" height="22" rx="1" fill="#ffffff"/>
    
    <!-- Book spine -->
    <rect x="0" y="0" width="3" height="26" rx="1" fill="#f6ad55"/>
    
    <!-- Text lines on book -->
    <rect x="5" y="6" width="10" height="1" fill="#4a5568"/>
    <rect x="5" y="9" width="8" height="1" fill="#4a5568"/>
    <rect x="5" y="12" width="12" height="1" fill="#4a5568"/>
    <rect x="5" y="15" width="9" height="1" fill="#4a5568"/>
    
    <!-- Bookmark -->
    <polygon points="17,0 20,0 20,8 18.5,6 17,8" fill="#e53e3e"/>
  </g>
  
  <!-- Small "D" letter for ClipDee -->
  <text x="90" y="95" font-family="Arial, sans-serif" font-size="24" font-weight="bold" fill="#ffffff">D</text>
</svg>