<svg xmlns="http://www.w3.org/2000/svg" viewBox="0 0 32 32" width="32" height="32">
  <!-- Background circle -->
  <circle cx="16" cy="16" r="15" fill="#667eea" stroke="#5a67d8" stroke-width="1"/>
  
  <!-- Clipboard -->
  <rect x="8" y="7" width="11" height="14.5" rx="1" fill="#ffffff" stroke="#e2e8f0" stroke-width="0.5"/>
  
  <!-- Clipboard clip -->
  <rect x="12" y="5.5" width="3" height="2" rx="0.5" fill="#a0aec0"/>
  <rect x="12.5" y="6" width="2" height="1" fill="#ffffff"/>
  
  <!-- Text lines -->
  <rect x="9.5" y="9.5" width="5" height="0.5" fill="#4299e1"/>
  <rect x="9.5" y="11" width="6.5" height="0.5" fill="#63b3ed"/>
  <rect x="9.5" y="12.5" width="4.5" height="0.5" fill="#90cdf4"/>
  
  <!-- Book overlay -->
  <rect x="13.5" y="11" width="5" height="6.5" rx="0.5" fill="#ffd700" opacity="0.95"/>
  <rect x="14" y="11.5" width="4" height="5.5" fill="#ffffff"/>
  
  <!-- Book spine -->
  <rect x="13.5" y="11" width="0.75" height="6.5" fill="#f6ad55"/>
  
  <!-- Text on book -->
  <rect x="14.5" y="12.5" width="2.5" height="0.3" fill="#4a5568"/>
  <rect x="14.5" y="13.5" width="2" height="0.3" fill="#4a5568"/>
  <rect x="14.5" y="14.5" width="3" height="0.3" fill="#4a5568"/>
  
  <!-- Small bookmark -->
  <polygon points="17.5,11 18.5,11 18.5,13 18,12.2 17.5,13" fill="#e53e3e"/>
</svg>