<svg xmlns="http://www.w3.org/2000/svg" viewBox="0 0 48 48" width="48" height="48">
  <!-- Background circle -->
  <circle cx="24" cy="24" r="22" fill="#667eea" stroke="#5a67d8" stroke-width="1.5"/>
  
  <!-- Clipboard -->
  <rect x="12" y="10" width="16" height="22" rx="1.5" fill="#ffffff" stroke="#e2e8f0" stroke-width="1"/>
  
  <!-- Clipboard clip -->
  <rect x="18" y="8" width="4.5" height="3" rx="0.8" fill="#a0aec0"/>
  <rect x="18.8" y="9" width="2.9" height="1.5" fill="#ffffff"/>
  
  <!-- Text lines -->
  <rect x="14.5" y="14" width="7.5" height="0.8" fill="#4299e1"/>
  <rect x="14.5" y="16.5" width="9.8" height="0.8" fill="#63b3ed"/>
  <rect x="14.5" y="19" width="6.8" height="0.8" fill="#90cdf4"/>
  
  <!-- Book overlay -->
  <rect x="20.2" y="16.5" width="7.5" height="9.8" rx="0.8" fill="#ffd700" opacity="0.95"/>
  <rect x="20.8" y="17.2" width="6.3" height="8.4" fill="#ffffff"/>
  
  <!-- Book spine -->
  <rect x="20.2" y="16.5" width="1.1" height="9.8" fill="#f6ad55"/>
  
  <!-- Text on book -->
  <rect x="21.8" y="19" width="3.8" height="0.5" fill="#4a5568"/>
  <rect x="21.8" y="20.5" width="3" height="0.5" fill="#4a5568"/>
  <rect x="21.8" y="22" width="4.5" height="0.5" fill="#4a5568"/>
  <rect x="21.8" y="23.5" width="3.4" height="0.5" fill="#4a5568"/>
  
  <!-- Bookmark -->
  <polygon points="26.2,16.5 27.7,16.5 27.7,20 26.95,18.8 26.2,20" fill="#e53e3e"/>
  
  <!-- Small "D" -->
  <text x="32" y="35" font-family="Arial, sans-serif" font-size="9" font-weight="bold" fill="#ffffff">D</text>
</svg>